<?xml version="1.0" standalone="no"?>
<!DOCTYPE svg PUBLIC "-//W3C//DTD SVG 20010904//EN"
 "http://www.w3.org/TR/2001/REC-SVG-20010904/DTD/svg10.dtd">
<svg version="1.0" xmlns="http://www.w3.org/2000/svg"
 width="360.000000pt" height="325.000000pt" viewBox="0 0 360.000000 325.000000"
 preserveAspectRatio="xMidYMid meet">

<g transform="translate(0.000000,325.000000) scale(0.100000,-0.100000)"
fill="#000000" stroke="none">
<path d="M1360 2125 c-239 -74 -527 -163 -640 -198 l-205 -63 0 -40 0 -39 130
-42 c72 -23 169 -54 218 -69 l87 -27 -2 -346 c-3 -322 -5 -353 -27 -450 -27
-120 -27 -121 62 -121 42 0 59 4 63 15 8 19 -23 171 -42 209 -11 23 -14 91
-14 347 0 182 4 320 9 323 5 4 21 2 35 -4 l26 -10 0 -188 c0 -213 2 -219 80
-263 33 -19 40 -28 40 -54 0 -64 29 -133 67 -162 l37 -28 160 3 c172 2 407 24
521 48 76 16 168 54 200 83 11 10 52 26 91 35 102 25 233 93 262 135 21 32 22
43 21 215 -1 100 2 181 7 182 11 3 467 141 511 155 36 12 48 35 34 71 -8 22
-30 31 -183 77 -216 64 -336 101 -764 235 -188 58 -343 106 -345 106 -2 -1
-200 -61 -439 -135z"/>
</g>
</svg>
